<svg width="84" height="164" viewBox="0 0 84 164" fill="none" xmlns="http://www.w3.org/2000/svg">
<path d="M73.9431 23.7914V139.437C73.9434 141.84 72.9959 144.145 71.3063 145.852C69.6167 147.56 67.3216 148.532 64.9196 148.557C64.8864 148.56 64.8531 148.562 64.8198 148.561H51.3599C40.5904 148.561 30.262 144.283 22.6468 136.667C15.0316 129.052 10.7534 118.724 10.7534 107.954V23.7914C10.7534 21.3717 11.7146 19.0511 13.4256 17.3401C15.1366 15.6292 17.4571 14.668 19.8768 14.668H25.3307C22.804 22.0386 57.0962 25.1417 58.9788 14.668H64.8198C67.2394 14.668 69.56 15.6292 71.271 17.3402C72.982 19.0511 73.9431 21.3717 73.9431 23.7914V23.7914Z" fill="#3FCAA5"/>
<path d="M34 6.02182C34.0004 5.70483 34.1264 5.40094 34.3506 5.17679C34.5747 4.95264 34.8786 4.82655 35.1956 4.82617H43.326C43.6426 4.82709 43.9458 4.95345 44.1693 5.17758C44.3928 5.40171 44.5182 5.70531 44.5182 6.02182C44.5182 6.33833 44.3928 6.64193 44.1693 6.86606C43.9458 7.09019 43.6426 7.21655 43.326 7.21747H35.1956C34.8786 7.2171 34.5747 7.09103 34.3506 6.86688C34.1264 6.64274 34.0004 6.33881 34 6.02182V6.02182Z" fill="#55C2CA"/>
<path d="M67.6127 163.231H16.1968C12.2077 163.226 8.38321 161.64 5.56245 158.819C2.74169 155.998 1.155 152.174 1.1504 148.185V67.3437C0.868079 67.141 0.638139 66.8738 0.479684 66.5645C0.321229 66.2551 0.238822 65.9125 0.239266 65.5649V57.4345C0.238823 57.087 0.321226 56.7444 0.479684 56.4352C0.638142 56.1259 0.86809 55.8589 1.1504 55.6562V53.4741C0.868092 53.2715 0.638141 53.0044 0.479684 52.6951C0.321226 52.3859 0.238826 52.0433 0.239266 51.6958V43.5649C0.238823 43.2174 0.321226 42.8748 0.479684 42.5655C0.638142 42.2562 0.86809 41.9892 1.1504 41.7866V37.8427C0.801794 37.6555 0.510616 37.3771 0.307992 37.0372C0.105368 36.6973 -0.00108553 36.3087 8.42966e-06 35.913V27.7827C-0.00109068 27.3869 0.105311 26.9983 0.307931 26.6583C0.510551 26.3184 0.801775 26.0398 1.1504 25.8525V15.0458C1.15502 11.0568 2.74175 7.2324 5.56251 4.41174C8.38327 1.59109 12.2076 0.0044781 16.1967 0H67.6127C71.6018 0.00449421 75.4262 1.59113 78.2468 4.4118C81.0675 7.23248 82.6541 11.0569 82.6586 15.0459V38.602C82.9296 38.7715 83.1531 39.0071 83.308 39.2867C83.4629 39.5662 83.5443 39.8805 83.5444 40.2001V55.7031C83.5443 56.0228 83.4629 56.3372 83.308 56.6168C83.1531 56.8964 82.9296 57.1321 82.6586 57.3017V148.185C82.6541 152.174 81.0675 155.998 78.2468 158.819C75.4262 161.64 71.6018 163.226 67.6127 163.231V163.231ZM16.1967 2C12.7379 2.00387 9.42184 3.37959 6.97602 5.82532C4.5302 8.27104 3.15434 11.5871 3.15034 15.0459V27.5537L2.18842 27.5908C2.13842 27.5926 2.09104 27.6135 2.05598 27.6492C2.02091 27.6849 2.00083 27.7327 1.99995 27.7827V35.913C2.001 35.963 2.02113 36.0107 2.05616 36.0464C2.09119 36.082 2.13847 36.103 2.18842 36.1049L3.15034 36.1415V43.1908L2.3896 43.3783C2.34747 43.3885 2.30992 43.4123 2.28272 43.446C2.25552 43.4798 2.2402 43.5216 2.23921 43.5649V51.6957C2.2402 51.7391 2.25552 51.7808 2.28272 51.8146C2.30992 51.8483 2.34747 51.8721 2.3896 51.8823L3.15034 52.0698V57.0605L2.3896 57.248C2.34747 57.2581 2.30992 57.2819 2.28272 57.3157C2.25552 57.3494 2.2402 57.3912 2.23921 57.4345V65.5649C2.24012 65.6083 2.2554 65.6501 2.2826 65.684C2.3098 65.7178 2.3474 65.7417 2.3896 65.7519L3.15034 65.9394V148.185C3.15433 151.644 4.5302 154.96 6.97602 157.406C9.42184 159.851 12.7379 161.227 16.1967 161.231H67.6127C71.0715 161.227 74.3875 159.851 76.8332 157.405C79.2789 154.96 80.6547 151.644 80.6586 148.185V55.5893H81.5444V40.3144H80.6586V15.0458C80.6547 11.5871 79.2789 8.2711 76.8332 5.82538C74.3875 3.37966 71.0715 2.00394 67.6127 1.99997L16.1967 2Z" fill="#55C2CA"/>
<path d="M47.8695 7.21747C48.5298 7.21747 49.0651 6.68216 49.0651 6.02182C49.0651 5.36148 48.5298 4.82617 47.8695 4.82617C47.2091 4.82617 46.6738 5.36148 46.6738 6.02182C46.6738 6.68216 47.2091 7.21747 47.8695 7.21747Z" fill="#55C2CA"/>
<path d="M42.6768 135.236C47.3845 135.236 51.2009 131.419 51.2009 126.712C51.2009 122.004 47.3845 118.188 42.6768 118.188C37.9692 118.188 34.1528 122.004 34.1528 126.712C34.1528 131.419 37.9692 135.236 42.6768 135.236Z" fill="white"/>
</svg>
